<?xml version="1.0" encoding="UTF-8" standalone="no"?>
<!-- Created with Inkscape (http://www.inkscape.org/) -->

<svg
   id="svg4153"
   version="1.1"
   inkscape:version="1.4.2 (ebf0e940d0, 2025-05-08)"
   width="256"
   height="256"
   sodipodi:docname="corectrl_reversed_no_pins.svg"
   viewBox="0 0 256 256"
   inkscape:label="main"
   xmlns:inkscape="http://www.inkscape.org/namespaces/inkscape"
   xmlns:sodipodi="http://sodipodi.sourceforge.net/DTD/sodipodi-0.dtd"
   xmlns="http://www.w3.org/2000/svg"
   xmlns:svg="http://www.w3.org/2000/svg"
   xmlns:rdf="http://www.w3.org/1999/02/22-rdf-syntax-ns#"
   xmlns:cc="http://creativecommons.org/ns#"
   xmlns:dc="http://purl.org/dc/elements/1.1/">
  <metadata
     id="metadata4159">
    <rdf:RDF>
      <cc:Work
         rdf:about="">
        <dc:format>image/svg+xml</dc:format>
        <dc:type
           rdf:resource="http://purl.org/dc/dcmitype/StillImage" />
      </cc:Work>
    </rdf:RDF>
  </metadata>
  <defs
     id="defs4157">
    <style
       type="text/css"
       id="current-color-scheme">
      .ColorScheme-Text {
      color:#ffffff;
      }
      </style>
  </defs>
  <sodipodi:namedview
     pagecolor="#008000"
     bordercolor="#666666"
     borderopacity="1"
     objecttolerance="10"
     gridtolerance="10"
     guidetolerance="10"
     inkscape:pageopacity="0"
     inkscape:pageshadow="2"
     inkscape:window-width="1143"
     inkscape:window-height="640"
     id="namedview4155"
     inkscape:document-units="px"
     showgrid="true"
     inkscape:showpageshadow="false"
     borderlayer="true"
     inkscape:zoom="1.4142136"
     inkscape:cx="115.96551"
     inkscape:cy="155.56349"
     inkscape:window-x="0"
     inkscape:window-y="0"
     inkscape:window-maximized="0"
     inkscape:current-layer="svg4153"
     fit-margin-top="0"
     fit-margin-left="0"
     fit-margin-right="0"
     fit-margin-bottom="0"
     inkscape:lockguides="true"
     showguides="true"
     inkscape:pagecheckerboard="0"
     inkscape:deskcolor="#d1d1d1">
    <inkscape:grid
       type="xygrid"
       id="grid818"
       empspacing="5"
       originx="0"
       originy="0"
       spacingy="1"
       spacingx="1"
       units="px" />
  </sodipodi:namedview>
  <inkscape:clipboard
     style="opacity:0.01000001;fill:#00000f;fill-opacity:0;stroke-width:1;stroke-linecap:butt;stroke-linejoin:miter;stroke-miterlimit:4;stroke-dasharray:none;stroke-dashoffset:0;stroke-opacity:1;stroke:none"
     min="0,0"
     max="22,22" />
  <path
     id="rect5"
     style="clip-rule:evenodd;display:inline;fill:currentColor;fill-opacity:1;fill-rule:evenodd;stroke-width:1.00456;stroke-linejoin:round;stroke-miterlimit:1.41421"
     class="ColorScheme-Text"
     inkscape:label="main"
     d="M 3.4365389 1.9999998 C 2.6035489 1.9999998 1.9329468 2.6735081 1.9329468 3.510108 L 1.9329468 28.678578 C 1.9329468 29.515177 2.6035489 30.188686 3.4365389 30.188686 L 28.496408 30.188686 C 29.329398 30.188686 30 29.515177 30 28.678578 L 30 3.510108 C 30 2.6735081 29.329398 1.9999998 28.496408 1.9999998 L 3.4365389 1.9999998 z M 28.434982 2.7334248 C 28.456462 2.7340537 28.477995 2.7357747 28.499345 2.7380947 C 28.843442 2.7890887 29.192133 3.0423501 29.246736 3.4041743 L 29.246736 28.126051 C 29.234376 28.305373 29.267933 28.482661 29.266803 28.661373 C 29.226853 29.016537 28.966783 29.375049 28.600416 29.43314 C 20.416982 29.43424 12.233499 29.43454 4.0500652 29.434123 C 3.7892006 29.471213 3.5172402 29.482997 3.2635182 29.397747 C 2.9856489 29.31812 2.7172921 29.096804 2.6937977 28.790902 C 2.680011 20.539035 2.6896728 12.286822 2.6867007 4.0348608 C 2.6629061 3.8190946 2.6394103 3.5963076 2.703342 3.3842657 C 2.778161 3.087611 3.0030774 2.7920691 3.3251889 2.7616902 C 11.335506 2.749317 19.346044 2.7578711 27.356478 2.7552997 C 27.694386 2.7448667 28.034256 2.7772565 28.370619 2.7348995 C 28.392059 2.7332495 28.413502 2.7327948 28.434982 2.7334248 z M 9.8265608 6.404482 L 9.8231346 11.689861 L 6.7048451 11.689861 L 6.7048451 14.710077 L 9.8224005 14.710077 L 9.8260713 25.154992 L 10.8292 25.154992 C 10.829599 22.134461 10.8281 17.925663 10.828956 14.710077 L 13.961684 14.710077 L 13.961684 11.689861 L 10.8292 11.689861 L 10.8292 6.404482 L 9.8265608 6.404482 z M 18.47246 6.404482 L 18.47246 14.710077 L 24.486829 14.710077 L 24.486829 11.815703 L 23.233835 11.815703 L 23.233835 13.451653 L 20.853148 13.451653 L 20.853148 11.689861 L 19.725454 10.557279 L 19.725454 7.6629055 L 22.607339 7.6629055 L 22.607339 8.921329 L 24.486829 8.921329 L 24.486829 6.404482 L 18.47246 6.404482 z M 18.47246 16.849397 L 18.47246 25.154992 L 24.486829 25.154992 L 24.486829 22.260618 L 23.233835 22.260618 L 23.233835 23.896568 L 20.853148 23.896568 L 20.853148 22.134775 L 19.725454 21.002194 L 19.725454 18.10782 L 22.607339 18.10782 L 22.607339 19.366244 L 24.486829 19.366244 L 24.486829 16.849397 L 18.47246 16.849397 z "
     transform="matrix(7.9808877,0,0,7.9464506,0.5733687,0.1071)" />
</svg>
