<?xml version="1.0" encoding="UTF-8" standalone="no"?>
<!-- Created with Inkscape (http://www.inkscape.org/) -->

<svg
   id="svg4153"
   version="1.1"
   inkscape:version="1.4.2 (ebf0e940d0, 2025-05-08)"
   width="256"
   height="256"
   sodipodi:docname="corectrl_reversed.svg"
   viewBox="0 0 256 256"
   inkscape:label="main"
   xmlns:inkscape="http://www.inkscape.org/namespaces/inkscape"
   xmlns:sodipodi="http://sodipodi.sourceforge.net/DTD/sodipodi-0.dtd"
   xmlns="http://www.w3.org/2000/svg"
   xmlns:svg="http://www.w3.org/2000/svg"
   xmlns:rdf="http://www.w3.org/1999/02/22-rdf-syntax-ns#"
   xmlns:cc="http://creativecommons.org/ns#"
   xmlns:dc="http://purl.org/dc/elements/1.1/">
  <metadata
     id="metadata4159">
    <rdf:RDF>
      <cc:Work
         rdf:about="">
        <dc:format>image/svg+xml</dc:format>
        <dc:type
           rdf:resource="http://purl.org/dc/dcmitype/StillImage" />
      </cc:Work>
    </rdf:RDF>
  </metadata>
  <defs
     id="defs4157">
    <style
       type="text/css"
       id="current-color-scheme">
      .ColorScheme-Text {
      color:#ffffff;
      }
      </style>
  </defs>
  <sodipodi:namedview
     pagecolor="#008000"
     bordercolor="#666666"
     borderopacity="1"
     objecttolerance="10"
     gridtolerance="10"
     guidetolerance="10"
     inkscape:pageopacity="0"
     inkscape:pageshadow="2"
     inkscape:window-width="1143"
     inkscape:window-height="640"
     id="namedview4155"
     inkscape:document-units="px"
     showgrid="true"
     inkscape:showpageshadow="false"
     borderlayer="true"
     inkscape:zoom="2"
     inkscape:cx="116"
     inkscape:cy="153"
     inkscape:window-x="0"
     inkscape:window-y="0"
     inkscape:window-maximized="0"
     inkscape:current-layer="svg4153"
     fit-margin-top="0"
     fit-margin-left="0"
     fit-margin-right="0"
     fit-margin-bottom="0"
     inkscape:lockguides="true"
     showguides="true"
     inkscape:pagecheckerboard="0"
     inkscape:deskcolor="#d1d1d1">
    <inkscape:grid
       type="xygrid"
       id="grid818"
       empspacing="5"
       originx="0"
       originy="0"
       spacingy="1"
       spacingx="1"
       units="px" />
  </sodipodi:namedview>
  <inkscape:clipboard
     style="opacity:0.01000001;fill:#00000f;fill-opacity:0;stroke-width:1;stroke-linecap:butt;stroke-linejoin:miter;stroke-miterlimit:4;stroke-dasharray:none;stroke-dashoffset:0;stroke-opacity:1;stroke:none"
     min="0,0"
     max="22,22" />
  <path
     id="path1072"
     style="clip-rule:evenodd;fill-rule:evenodd;stroke-linejoin:round;stroke-miterlimit:1.41420996;display:inline;fill:currentColor;fill-opacity:1;stroke-width:4"
     class="ColorScheme-Text"
     inkscape:label="main"
     d="M 30.999998 -157 L 30.999998 -141 L 22.999998 -141 C 16.351998 -141 10.999998 -135.648 10.999998 -129 L 10.999998 -121 L -5.000002 -121 L -5.000002 -113 L 10.999998 -113 L 10.999998 -105 L -5.000002 -105 L -5.000002 -97 L 10.999998 -97 L 10.999998 -89 L -5.000002 -89 L -5.000002 -81 L 10.999998 -81 L 10.999998 -73 L -5.000002 -73 L -5.000002 -65 L 10.999998 -65 L 10.999998 -57 L -5.000002 -57 L -5.000002 -49 L 10.999998 -49 L 10.999998 -41 L -5.000002 -41 L -5.000002 -33 L 10.999998 -33 L 10.999998 -25 L -5.000002 -25 L -5.000002 -17 L 10.999998 -17 L 10.999998 -9 L -5.000002 -9 L -5.000002 -1 L 10.999998 -1 L 10.999998 7 L -5.000002 7 L -5.000002 15 L 10.999998 15 L 10.999998 23 L -5.000002 23 L -5.000002 31 L 10.999998 31 L 10.999998 39 L -5.000002 39 L -5.000002 47 L 10.999998 47 L 10.999998 55 L -5.000002 55 L -5.000002 63 L 10.999998 63 L 10.999998 71 C 10.999998 77.647993 16.351998 83 22.999998 83 L 30.999998 83 L 30.999998 99 L 38.999998 99 L 38.999998 83 L 46.999998 83 L 46.999998 99 L 54.999998 99 L 54.999998 83 L 62.999998 83 L 62.999998 99 L 70.999998 99 L 70.999998 83 L 78.999998 83 L 78.999998 99 L 86.999998 99 L 86.999998 83 L 94.999998 83 L 94.999998 99 L 103 99 L 103 83 L 111 83 L 111 99 L 119 99 L 119 83 L 127 83 L 127 99 L 135 99 L 135 83 L 143 83 L 143 99 L 151 99 L 151 83 L 159 83 L 159 99 L 167 99 L 167 83 L 175 83 L 175 99 L 183 99 L 183 83 L 191 83 L 191 99 L 199 99 L 199 83 L 207 83 L 207 99 L 215 99 L 215 83 L 223 83 C 229.648 83 235 77.647993 235 71 L 235 63 L 251 63 L 251 55 L 235 55 L 235 47 L 251 47 L 251 39 L 235 39 L 235 31 L 251 31 L 251 23 L 235 23 L 235 15 L 251 15 L 251 7 L 235 7 L 235 -1 L 251 -1 L 251 -9 L 235 -9 L 235 -17 L 251 -17 L 251 -25 L 235 -25 L 235 -33 L 251 -33 L 251 -41 L 235 -41 L 235 -49 L 251 -49 L 251 -57 L 235 -57 L 235 -65 L 251 -65 L 251 -73 L 235 -73 L 235 -81 L 251 -81 L 251 -89 L 235 -89 L 235 -97 L 251 -97 L 251 -105 L 235 -105 L 235 -113 L 251 -113 L 251 -121 L 235 -121 L 235 -129 C 235 -135.648 229.648 -141 223 -141 L 215 -141 L 215 -157 L 207 -157 L 207 -141 L 199 -141 L 199 -157 L 191 -157 L 191 -141 L 183 -141 L 183 -157 L 175 -157 L 175 -141 L 167 -141 L 167 -157 L 159 -157 L 159 -141 L 151 -141 L 151 -157 L 143 -157 L 143 -141 L 135 -141 L 135 -157 L 127 -157 L 127 -141 L 119 -141 L 119 -157 L 111 -157 L 111 -141 L 103 -141 L 103 -157 L 94.999998 -157 L 94.999998 -141 L 86.999998 -141 L 86.999998 -157 L 78.999998 -157 L 78.999998 -141 L 70.999998 -141 L 70.999998 -157 L 62.999998 -157 L 62.999998 -141 L 54.999998 -141 L 54.999998 -157 L 46.999998 -157 L 46.999998 -141 L 38.999998 -141 L 38.999998 -157 L 30.999998 -157 z M 222.50976 -135.17188 C 222.68119 -135.16688 222.85304 -135.1532 223.02344 -135.13477 C 225.76964 -134.72954 228.5525 -132.71702 228.98828 -129.8418 L 228.98828 66.609375 C 228.88964 68.034348 229.15745 69.443155 229.14844 70.863281 C 228.8296 73.685574 226.75401 76.534476 223.83008 76.996094 C 158.51901 77.004835 93.207549 77.00722 27.896482 77.003906 C 25.814551 77.29864 23.644065 77.392279 21.619139 76.714844 C 19.401495 76.082092 17.25977 74.323413 17.072264 71.892578 C 16.962234 6.3195247 17.039343 -59.256276 17.015623 -124.83008 C 16.825721 -126.54465 16.638204 -128.31502 17.148435 -130 C 17.745558 -132.35735 19.54059 -134.70586 22.111326 -134.94727 C 86.040767 -135.04559 149.97197 -134.97761 213.90234 -134.99805 C 216.59915 -135.08095 219.31162 -134.82357 221.99609 -135.16016 C 222.1672 -135.17327 222.33833 -135.17688 222.50976 -135.17188 z M 73.998045 -106 L 73.970701 -64 L 49.083982 -64 L 49.083982 -40 L 73.964842 -40 L 73.994139 43 L 81.999998 43 C 82.003182 18.9975 81.991213 -14.447505 81.998045 -40 L 107 -40 L 107 -64 L 81.999998 -64 L 81.999998 -106 L 73.998045 -106 z M 143 -106 L 143 -40 L 191 -40 L 191 -63 L 181 -63 L 181 -50 L 162 -50 L 162 -64 L 153 -73 L 153 -96 L 176 -96 L 176 -86 L 191 -86 L 191 -106 L 143 -106 z M 143 -23 L 143 43 L 191 43 L 191 20 L 181 20 L 181 33 L 162 33 L 162 19 L 153 10 L 153 -13 L 176 -13 L 176 -3 L 191 -3 L 191 -23 L 143 -23 z "
     transform="translate(5.000002,157)" />
</svg>
