<?xml version="1.0" encoding="UTF-8" standalone="no"?>
<!-- Created with Inkscape (http://www.inkscape.org/) -->

<svg
   id="svg4153"
   version="1.1"
   inkscape:version="1.4.2 (ebf0e940d0, 2025-05-08)"
   width="256"
   height="256"
   sodipodi:docname="corectrl_no_pins.svg"
   viewBox="0 0 256 256"
   inkscape:label="main"
   xmlns:inkscape="http://www.inkscape.org/namespaces/inkscape"
   xmlns:sodipodi="http://sodipodi.sourceforge.net/DTD/sodipodi-0.dtd"
   xmlns="http://www.w3.org/2000/svg"
   xmlns:svg="http://www.w3.org/2000/svg"
   xmlns:rdf="http://www.w3.org/1999/02/22-rdf-syntax-ns#"
   xmlns:cc="http://creativecommons.org/ns#"
   xmlns:dc="http://purl.org/dc/elements/1.1/">
  <metadata
     id="metadata4159">
    <rdf:RDF>
      <cc:Work
         rdf:about="">
        <dc:format>image/svg+xml</dc:format>
        <dc:type
           rdf:resource="http://purl.org/dc/dcmitype/StillImage" />
      </cc:Work>
    </rdf:RDF>
  </metadata>
  <defs
     id="defs4157">
    <style
       type="text/css"
       id="current-color-scheme">
      .ColorScheme-Text {
      color:#ffffff;
      }
      </style>
  </defs>
  <sodipodi:namedview
     pagecolor="#008000"
     bordercolor="#666666"
     borderopacity="1"
     objecttolerance="10"
     gridtolerance="10"
     guidetolerance="10"
     inkscape:pageopacity="0"
     inkscape:pageshadow="2"
     inkscape:window-width="1143"
     inkscape:window-height="640"
     id="namedview4155"
     inkscape:document-units="px"
     showgrid="true"
     inkscape:showpageshadow="false"
     borderlayer="true"
     inkscape:zoom="1.4142136"
     inkscape:cx="118.79394"
     inkscape:cy="181.01934"
     inkscape:window-x="0"
     inkscape:window-y="0"
     inkscape:window-maximized="0"
     inkscape:current-layer="svg4153"
     fit-margin-top="0"
     fit-margin-left="0"
     fit-margin-right="0"
     fit-margin-bottom="0"
     inkscape:lockguides="true"
     showguides="true"
     inkscape:pagecheckerboard="0"
     inkscape:deskcolor="#d1d1d1">
    <inkscape:grid
       type="xygrid"
       id="grid818"
       empspacing="5"
       originx="0"
       originy="0"
       spacingy="1"
       spacingx="1"
       units="px" />
  </sodipodi:namedview>
  <inkscape:clipboard
     style="opacity:0.01000001;fill:#00000f;fill-opacity:0;stroke-width:1;stroke-linecap:butt;stroke-linejoin:miter;stroke-miterlimit:4;stroke-dasharray:none;stroke-dashoffset:0;stroke-opacity:1;stroke:none"
     min="0,0"
     max="22,22" />
  <path
     id="rect1"
     style="clip-rule:evenodd;display:inline;fill:currentColor;fill-opacity:1;fill-rule:evenodd;stroke-width:1.00456;stroke-linejoin:round;stroke-miterlimit:1.41421"
     inkscape:label="main"
     d="m 3.4365389,1.9999998 c -0.83299,0 -1.5035921,0.6735083 -1.5035921,1.5101082 v 25.16847 c 0,0.836599 0.6706021,1.510108 1.5035921,1.510108 H 28.496408 C 29.329398,30.188686 30,29.515177 30,28.678578 V 3.510108 C 30,2.6735081 29.329398,1.9999998 28.496408,1.9999998 Z M 9.8265608,6.404482 H 10.8292 v 5.285379 h 3.132484 v 3.020216 h -3.132728 c -8.32e-4,3.215586 6.43e-4,7.424384 2.44e-4,10.444915 H 9.8260713 L 9.8224005,14.710077 H 6.7048451 v -3.020216 h 3.1182895 z m 8.6458992,0 h 6.014369 v 2.516847 h -1.87949 V 7.6629055 h -2.881885 v 2.8943735 l 1.127694,1.132582 v 1.761792 h 2.380687 v -1.63595 h 1.252994 v 2.894374 H 18.47246 Z m 0,10.444915 h 6.014369 v 2.516847 h -1.87949 V 18.10782 h -2.881885 v 2.894374 l 1.127694,1.132581 v 1.761793 h 2.380687 v -1.63595 h 1.252994 v 2.894374 H 18.47246 Z"
     transform="matrix(7.9808877,0,0,7.9464506,0.5733687,0.1071)"
     class="ColorScheme-Text" />
</svg>
