<?xml version="1.0" encoding="UTF-8" standalone="no"?>
<svg
   width="16"
   height="16"
   version="1"
   id="svg5"
   sodipodi:docname="mpd2.svg"
   inkscape:version="1.4.2 (ebf0e940d0, 2025-05-08)"
   xmlns:inkscape="http://www.inkscape.org/namespaces/inkscape"
   xmlns:sodipodi="http://sodipodi.sourceforge.net/DTD/sodipodi-0.dtd"
   xmlns="http://www.w3.org/2000/svg"
   xmlns:svg="http://www.w3.org/2000/svg">
  <defs
     id="defs5" />
  <sodipodi:namedview
     id="namedview5"
     pagecolor="#008000"
     bordercolor="#000000"
     borderopacity="0.25"
     inkscape:showpageshadow="2"
     inkscape:pageopacity="0.0"
     inkscape:pagecheckerboard="0"
     inkscape:deskcolor="#d1d1d1"
     inkscape:zoom="19.180271"
     inkscape:cx="10.088491"
     inkscape:cy="10.688066"
     inkscape:window-width="1240"
     inkscape:window-height="1060"
     inkscape:window-x="0"
     inkscape:window-y="0"
     inkscape:window-maximized="0"
     inkscape:current-layer="svg5" />
  <style
     type="text/css"
     id="current-color-scheme">
        .ColorScheme-Text {color:#ffffff;}
    </style>
  <path
     id="main"
     style="display:inline;fill:currentColor"
     class="ColorScheme-Text"
     d="M 6.1796875 0 C 5.5265215 0 5 0.5468045 5 1.2265625 L 5 3.0234375 A 5.5 5.5 0 0 0 0 8.5 A 5.5 5.5 0 0 0 5.5 14 A 5.5 5.5 0 0 0 6 13.976562 L 6 14.181641 C 6 14.634813 6.3826439 15 6.8574219 15 L 9 15 L 9 15.199219 C 9 15.233769 9.0039256 15.268839 9.0097656 15.300781 L 8.3007812 15.300781 C 8.1345814 15.300781 8 15.433409 8 15.599609 L 8 15.699219 C 8 15.865419 8.1345814 16 8.3007812 16 L 11.699219 16 C 11.865419 16 12 15.865419 12 15.699219 L 12 15.599609 C 12 15.433409 11.865419 15.300781 11.699219 15.300781 L 10.990234 15.300781 C 10.996071 15.26884 11 15.233773 11 15.199219 L 11 15 L 13.142578 15 C 13.617356 15 14 14.634813 14 14.181641 L 14 9.8183594 C 14 9.3651874 13.617356 9 13.142578 9 L 14.820312 9 C 15.473479 9 16 8.4531955 16 7.7734375 L 16 1.2265625 C 16 0.5468045 15.473481 0 14.820312 0 L 6.1796875 0 z M 6.1796875 0.52148438 L 14.820312 0.52148438 C 15.1825 0.52148438 15.478516 0.81602948 15.478516 1.2265625 L 15.478516 7.7734375 C 15.478516 8.1839705 15.1825 8.4785156 14.820312 8.4785156 L 11 8.4785156 A 5.5 5.5 0 0 1 11 8.5 A 5.5 5.5 0 0 0 5.5 3 A 5.5 5.5 0 0 1 5.5214844 3 L 5.5214844 1.2265625 C 5.5214844 0.81602973 5.8175011 0.52148438 6.1796875 0.52148438 z M 5.5 4 A 4.5 4.5 0 0 1 10 8.5 A 4.5 4.5 0 0 1 9.9726562 9 L 6.9140625 9 A 1.5 1.5 0 0 0 7 8.5 A 1.5 1.5 0 0 0 5.5 7 A 1.5 1.5 0 0 0 4 8.5 A 1.5 1.5 0 0 0 5.5 10 A 1.5 1.5 0 0 0 6 9.9140625 L 6 12.972656 A 4.5 4.5 0 0 1 5.5 13 A 4.5 4.5 0 0 1 1 8.5 A 4.5 4.5 0 0 1 5.5 4 z M 6.8574219 9.4472656 L 13.142578 9.4472656 C 13.387921 9.4472656 13.552734 9.6170516 13.552734 9.8183594 L 13.552734 14.181641 C 13.552734 14.382948 13.387921 14.552734 13.142578 14.552734 L 6.8574219 14.552734 C 6.6120788 14.552734 6.4472656 14.382948 6.4472656 14.181641 L 6.4472656 9.8183594 C 6.4472656 9.6170516 6.612079 9.4472656 6.8574219 9.4472656 z " />
</svg>
