<?xml version="1.0" encoding="UTF-8" standalone="no"?>
<!-- Created with Inkscape (http://www.inkscape.org/) -->

<svg
   width="64"
   height="64"
   id="svg4700"
   version="1.1"
   inkscape:version="1.4.2 (ebf0e940d0, 2025-05-08)"
   viewBox="0 0 64 64"
   inkscape:export-filename="/home/qball/Desktop/rofi-large.png"
   inkscape:export-xdpi="180"
   inkscape:export-ydpi="180"
   sodipodi:docname="rofi.svg"
   xmlns:inkscape="http://www.inkscape.org/namespaces/inkscape"
   xmlns:sodipodi="http://sodipodi.sourceforge.net/DTD/sodipodi-0.dtd"
   xmlns="http://www.w3.org/2000/svg"
   xmlns:svg="http://www.w3.org/2000/svg"
   xmlns:rdf="http://www.w3.org/1999/02/22-rdf-syntax-ns#"
   xmlns:cc="http://creativecommons.org/ns#"
   xmlns:dc="http://purl.org/dc/elements/1.1/">
  <defs
     id="defs4702" />
  <style
     type="text/css"
     id="current-color-scheme">
    .ColorScheme-Text {
    color:#ffffff;
    }
  </style>
  <sodipodi:namedview
     id="base"
     pagecolor="#008000"
     bordercolor="#666666"
     borderopacity="1.0"
     inkscape:pageopacity="0.0"
     inkscape:pageshadow="2"
     inkscape:zoom="8"
     inkscape:cx="0.4375"
     inkscape:cy="25.125"
     inkscape:current-layer="svg4700"
     showgrid="true"
     inkscape:document-units="px"
     inkscape:grid-bbox="true"
     showguides="true"
     inkscape:guide-bbox="true"
     inkscape:window-width="1900"
     inkscape:window-height="1030"
     inkscape:window-x="0"
     inkscape:window-y="0"
     inkscape:window-maximized="1"
     inkscape:showpageshadow="2"
     inkscape:pagecheckerboard="0"
     inkscape:deskcolor="#d1d1d1">
    <sodipodi:guide
       position="-45.625,99.25"
       orientation="0,1"
       id="guide5484"
       inkscape:locked="false" />
    <sodipodi:guide
       position="-50.25,46.625"
       orientation="0,1"
       id="guide5486"
       inkscape:locked="false" />
  </sodipodi:namedview>
  <metadata
     id="metadata4705">
    <rdf:RDF>
      <cc:Work
         rdf:about="">
        <dc:format>image/svg+xml</dc:format>
        <dc:type
           rdf:resource="http://purl.org/dc/dcmitype/StillImage" />
        <dc:title />
      </cc:Work>
    </rdf:RDF>
  </metadata>
  <path
     id="main"
     style="fill:currentColor;font-weight:bold;font-size:37.5223px;line-height:1.25;font-family:'Nimbus Mono L';-inkscape-font-specification:'Nimbus Mono L';letter-spacing:0px;word-spacing:0px;stroke-width:1px"
     transform="matrix(1.1744661,0,0,1.6671325,-18.218825,-22.30092)"
     d="M 60.371037,26.089476 H 64.0107 c 0.863013,0 1.313281,-0.07505 1.650981,-0.262656 0.600357,-0.375223 0.97558,-1.013102 0.97558,-1.688504 0,-0.600356 -0.300178,-1.163191 -0.825491,-1.538414 -0.412745,-0.300178 -0.750446,-0.375223 -1.80107,-0.375223 H 52.678965 c -0.97558,0 -1.275758,0.03752 -1.650981,0.262656 -0.600357,0.375223 -0.97558,1.013102 -0.97558,1.650981 0,0.637879 0.300179,1.238236 0.825491,1.575937 0.412745,0.300178 0.82549,0.375223 1.80107,0.375223 h 3.639663 V 39.52246 h -3.639663 c -0.97558,0 -1.275758,0.03752 -1.650981,0.262656 -0.600357,0.375223 -0.97558,1.013102 -0.97558,1.650981 0,1.313281 0.900535,1.95116 2.626561,1.95116 H 64.0107 c 1.726026,0 2.626561,-0.637879 2.626561,-1.95116 0,-0.600357 -0.300178,-1.163191 -0.825491,-1.538414 C 65.399025,39.597504 65.023802,39.52246 64.0107,39.52246 H 60.371037 Z M 42.240548,37.346168 h 3.91477 c 1.22503,0 1.864177,-0.318939 1.864177,-0.975579 0,-0.300179 -0.213049,-0.600357 -0.585884,-0.787969 -0.292942,-0.131328 -0.532622,-0.16885 -1.278293,-0.16885 h -3.91477 v -0.581595 c 0,-0.544074 0.692409,-0.80673 2.157119,-0.80673 0.852194,0 1.9707,0.07505 2.956051,0.187612 0.346204,0.03753 0.612515,0.05629 0.798932,0.05629 0.745671,0 1.331555,-0.431506 1.331555,-0.994341 0,-0.450268 -0.426097,-0.769207 -1.198399,-0.919296 -0.878826,-0.150089 -2.529954,-0.281417 -3.675091,-0.281417 -3.222363,0 -5.246325,1.050624 -5.246325,2.757888 v 0.581595 h -1.118506 c -0.719039,0 -0.932089,0.01876 -1.198399,0.131328 -0.426097,0.168851 -0.692408,0.48779 -0.692408,0.825491 0,0.65664 0.639146,0.975579 1.864176,0.975579 h 1.145137 v 4.108691 h -1.438078 c -0.69241,0 -0.905458,0.01876 -1.171769,0.131328 -0.426097,0.187612 -0.692408,0.506552 -0.692408,0.82549 0,0.31894 0.213049,0.600357 0.585883,0.787969 0.266311,0.131328 0.639147,0.187611 1.278294,0.187611 h 7.909433 c 1.225031,0 1.864177,-0.31894 1.864177,-0.97558 0,-0.300178 -0.213049,-0.581595 -0.585885,-0.769206 -0.292941,-0.150089 -0.532622,-0.187612 -1.278292,-0.187612 h -3.595197 z m 0.06502,-15.590525 c -3.994664,0 -7.05724,1.838592 -7.05724,4.240019 0,2.382666 3.062576,4.240019 6.977347,4.240019 3.914771,0 6.977346,-1.857353 6.977346,-4.240019 0,-2.363904 -3.062575,-4.240019 -6.897453,-4.240019 z m -0.133156,1.932398 c 2.370168,0 4.154452,0.994341 4.154452,2.307621 0,1.294519 -1.784284,2.307622 -4.101189,2.307622 -2.316905,0 -4.101188,-1.013103 -4.101188,-2.307622 0,-1.294519 1.784283,-2.307621 4.047925,-2.307621 z M 23.72924,35.432532 h 2.360269 c 1.026203,0.525312 3.258196,4.240018 4.592261,7.72959 l 0.07697,0.225133 h 2.078062 c 0.513102,0 0.923584,-0.112567 1.128825,-0.262656 0.410481,-0.375223 0.667032,-1.0131 0.667032,-1.688502 0,-0.600356 -0.230896,-1.238235 -0.564413,-1.575935 -0.282205,-0.300179 -0.538756,-0.375223 -1.231444,-0.375223 h -0.282205 c -0.974894,-2.176293 -2.001097,-3.93984 -3.104266,-5.328164 1.821511,-1.388325 2.693784,-3.151872 2.693784,-5.440731 0,-3.827273 -2.334613,-6.491355 -5.74674,-6.491355 h -5.721085 c -0.692688,0 -0.872273,0.03753 -1.128824,0.262657 -0.410482,0.375223 -0.667032,1.0131 -0.667032,1.650979 0,0.637879 0.230895,1.238235 0.564412,1.575936 0.282205,0.300178 0.564411,0.375223 1.231444,0.375223 h 0.282206 v 13.395455 h -0.282206 c -0.641377,0 -0.872273,0.07504 -1.128824,0.300178 -0.410482,0.3377 -0.667032,0.975579 -0.667032,1.65098 0,1.275758 0.615721,1.951158 1.795856,1.951158 h 3.848263 c 0.538757,0 0.923583,-0.112567 1.128824,-0.262656 0.410482,-0.375223 0.667033,-1.0131 0.667033,-1.688502 0,-0.600356 -0.205241,-1.200712 -0.564412,-1.575935 -0.282206,-0.300179 -0.513102,-0.375223 -1.231445,-0.375223 h -0.795308 z m 0,-3.864795 v -5.478253 h 2.770751 c 1.56496,0 2.719439,1.050624 2.719439,2.513993 0,1.726025 -1.539305,2.96426 -3.643023,2.96426 z"
     class="ColorScheme-Text" />
</svg>
