<?xml version="1.0" encoding="UTF-8" standalone="no"?>
<svg
   width="64"
   height="64"
   version="1"
   id="svg5"
   sodipodi:docname="smplayer.svg"
   inkscape:version="1.4.2 (ebf0e940d0, 2025-05-08)"
   xmlns:inkscape="http://www.inkscape.org/namespaces/inkscape"
   xmlns:sodipodi="http://sodipodi.sourceforge.net/DTD/sodipodi-0.dtd"
   xmlns="http://www.w3.org/2000/svg"
   xmlns:svg="http://www.w3.org/2000/svg">
  <defs
     id="defs5" />
  <style
     type="text/css"
     id="current-color-scheme">
     .ColorScheme-Text {color:#ffffff;}
  </style>
  <sodipodi:namedview
     id="namedview5"
     pagecolor="#008000"
     bordercolor="#000000"
     borderopacity="0.25"
     inkscape:showpageshadow="2"
     inkscape:pageopacity="0.0"
     inkscape:pagecheckerboard="0"
     inkscape:deskcolor="#d1d1d1"
     inkscape:zoom="4.7950679"
     inkscape:cx="19.603476"
     inkscape:cy="37.121476"
     inkscape:window-width="1143"
     inkscape:window-height="640"
     inkscape:window-x="0"
     inkscape:window-y="0"
     inkscape:window-maximized="0"
     inkscape:current-layer="svg5" />
  <path
     id="path3"
     style="display:inline;fill:currentColor"
     d="M 32 4.0019531 C 16.488665 4.0019531 4 16.490617 4 32.001953 C 4 47.513288 16.488665 60 32 60 C 47.511335 60 59.998047 47.513288 59.998047 32.001953 C 59.998047 16.490617 47.511335 4.0019531 32 4.0019531 z M 32 10.001953 A 7.9996572 7.9996572 0 0 1 40 18.001953 A 7.9996572 7.9996572 0 0 1 32 26.001953 A 7.9996572 7.9996572 0 0 1 24 18.001953 A 7.9996572 7.9996572 0 0 1 32 10.001953 z M 18 24.001953 A 7.9996572 7.9996572 0 0 1 26 32.001953 A 7.9996572 7.9996572 0 0 1 18 40 A 7.9996572 7.9996572 0 0 1 10 32.001953 A 7.9996572 7.9996572 0 0 1 18 24.001953 z M 45.998047 24.001953 A 7.9996572 7.9996572 0 0 1 53.998047 32.001953 A 7.9996572 7.9996572 0 0 1 45.998047 40 A 7.9996572 7.9996572 0 0 1 38 32.001953 A 7.9996572 7.9996572 0 0 1 45.998047 24.001953 z M 30.5 28.404297 A 0.99995715 0.99995715 0 0 1 31.365234 28.904297 A 0.99995715 0.99995715 0 0 1 31 30.269531 A 0.99995715 0.99995715 0 0 1 29.632812 29.904297 A 0.99995715 0.99995715 0 0 1 30 28.537109 A 0.99995715 0.99995715 0 0 1 30.5 28.404297 z M 34.597656 29.501953 A 0.99995715 0.99995715 0 0 1 35.462891 30.001953 A 0.99995715 0.99995715 0 0 1 35.097656 31.367188 A 0.99995715 0.99995715 0 0 1 33.732422 31.001953 A 0.99995715 0.99995715 0 0 1 34.097656 29.634766 A 0.99995715 0.99995715 0 0 1 34.597656 29.501953 z M 29.402344 32.501953 A 0.99995715 0.99995715 0 0 1 30.267578 33.001953 A 0.99995715 0.99995715 0 0 1 29.902344 34.367188 A 0.99995715 0.99995715 0 0 1 28.535156 34.001953 A 0.99995715 0.99995715 0 0 1 28.902344 32.634766 A 0.99995715 0.99995715 0 0 1 29.402344 32.501953 z M 33.5 33.599609 A 0.99995715 0.99995715 0 0 1 34.365234 34.099609 A 0.99995715 0.99995715 0 0 1 34 35.464844 A 0.99995715 0.99995715 0 0 1 32.632812 35.099609 A 0.99995715 0.99995715 0 0 1 33 33.734375 A 0.99995715 0.99995715 0 0 1 33.5 33.599609 z M 32 38.001953 A 7.9996572 7.9996572 0 0 1 40 46 A 7.9996572 7.9996572 0 0 1 32 54 A 7.9996572 7.9996572 0 0 1 24 46 A 7.9996572 7.9996572 0 0 1 32 38.001953 z "
     class="ColorScheme-Text" />
</svg>
