<?xml version="1.0" encoding="UTF-8" standalone="no"?>
<svg
   width="16"
   height="16"
   version="1.1"
   id="svg3"
   sodipodi:docname="system-config-samba.svg"
   inkscape:version="1.4.2 (ebf0e940d0, 2025-05-08)"
   xmlns:inkscape="http://www.inkscape.org/namespaces/inkscape"
   xmlns:sodipodi="http://sodipodi.sourceforge.net/DTD/sodipodi-0.dtd"
   xmlns="http://www.w3.org/2000/svg"
   xmlns:svg="http://www.w3.org/2000/svg">
  <defs
     id="defs3" />
  <sodipodi:namedview
     id="namedview3"
     pagecolor="#008000"
     bordercolor="#000000"
     borderopacity="0.25"
     inkscape:showpageshadow="2"
     inkscape:pageopacity="0.0"
     inkscape:pagecheckerboard="0"
     inkscape:deskcolor="#d1d1d1"
     inkscape:zoom="19.180271"
     inkscape:cx="6.8820715"
     inkscape:cy="7.1427561"
     inkscape:window-width="1143"
     inkscape:window-height="1060"
     inkscape:window-x="0"
     inkscape:window-y="0"
     inkscape:window-maximized="0"
     inkscape:current-layer="svg3" />
  <style
     type="text/css"
     id="current-color-scheme">
        .ColorScheme-Text {color:#ffffff;}
    </style>
  <path
     id="main"
     style="fill:currentColor"
     d="M 8 0 A 8 8 0 0 0 0 8 A 8 8 0 0 0 8 16 A 8 8 0 0 0 16 8 A 8 8 0 0 0 8 0 z M 5.4707031 4 A 0.55442716 0.37136378 0 0 1 5.9804688 4.1855469 L 7.9257812 6.4433594 A 0.55442716 0.37136378 0 0 1 7.4453125 7 L 6 7 L 6 11.5 C 6 11.777 5.777 12 5.5 12 C 5.223 12 5 11.777 5 11.5 L 5 7 L 3.5546875 7 A 0.55442716 0.37136378 0 0 1 3.0742188 6.4433594 L 5.0195312 4.1855469 A 0.55442716 0.37136378 0 0 1 5.4707031 4 z M 10.5 4 C 10.777 4 11 4.223 11 4.5 L 11 9 L 12.445312 9 A 0.55442716 0.37136378 0 0 1 12.925781 9.5566406 L 10.980469 11.814453 A 0.55442716 0.37136378 0 0 1 10.470703 12 A 0.55442716 0.37136378 0 0 1 10.019531 11.814453 L 8.0742188 9.5566406 A 0.55442716 0.37136378 0 0 1 8.5546875 9 L 10 9 L 10 4.5 C 10 4.223 10.223 4 10.5 4 z "
     class="ColorScheme-Text" />
</svg>
