<?xml version="1.0" encoding="UTF-8" standalone="no"?>
<svg
   width="64"
   height="64"
   version="1.1"
   id="svg6"
   sodipodi:docname="vorta.svg"
   inkscape:version="1.4.3 (0d15f75042, 2025-12-25)"
   xmlns:inkscape="http://www.inkscape.org/namespaces/inkscape"
   xmlns:sodipodi="http://sodipodi.sourceforge.net/DTD/sodipodi-0.dtd"
   xmlns="http://www.w3.org/2000/svg"
   xmlns:svg="http://www.w3.org/2000/svg">
  <defs
     id="defs6" />
  <sodipodi:namedview
     id="namedview6"
     pagecolor="#666600"
     bordercolor="#000000"
     borderopacity="0.25"
     inkscape:showpageshadow="2"
     inkscape:pageopacity="0.0"
     inkscape:pagecheckerboard="0"
     inkscape:deskcolor="#d1d1d1"
     inkscape:zoom="8.6875"
     inkscape:cx="31.942446"
     inkscape:cy="32"
     inkscape:window-width="1900"
     inkscape:window-height="1030"
     inkscape:window-x="0"
     inkscape:window-y="0"
     inkscape:window-maximized="1"
     inkscape:current-layer="svg6" />
  <style
     type="text/css"
     id="current-color-scheme">
        .ColorScheme-Text {
        color:#ffffff;
        }
    </style>
  <path
     id="path6"
     style="display:inline;opacity:1;fill:currentColor;fill-opacity:1"
     d="m 7.0019531,34.548828 c -1.662,0 -3,1.316195 -3,2.951172 v 0.931641 C 4.0128566,36.805982 5.3448104,35.5 7,35.5 h 49.998047 c 1.662,0 3,1.316195 3,2.951172 v 12.117187 c 4.5e-5,-0.0067 0.002,-0.01283 0.002,-0.01953 V 37.5 c 0,-1.634977 -1.338,-2.951172 -3,-2.951172 z M 54,44 a 4,4 0 0 1 -4,4 4,4 0 0 1 -4,-4 4,4 0 0 1 4,-4 4,4 0 0 1 4,4 z m -11,0 a 4,4 0 0 1 -4,4 4,4 0 0 1 -4,-4 4,4 0 0 1 4,-4 4,4 0 0 1 4,4 z M 7,35 C 5.338,35 4,36.316195 4,37.951172 V 51 c 0,1.634977 1.338,2.951172 3,2.951172 h 49.998047 c 1.662,0 3,-1.316195 3,-2.951172 V 37.951172 c 0,-1.634977 -1.338,-2.951172 -3,-2.951172 z m 0.5,0.664062 h 48.998047 c 1.62876,0 2.939453,1.223613 2.939453,2.744141 v 12.134766 c 0,1.520528 -1.310693,2.74414 -2.939453,2.74414 H 7.5 c -1.62876,0 -2.9394531,-1.223612 -2.9394531,-2.74414 V 38.408203 C 4.5605469,36.887675 5.87124,35.664062 7.5,35.664062 Z M 18,17 c -1.379517,5.9e-5 -2.661665,0.710887 -3.392578,1.880859 l -10,16 c -0.5183058,0.830088 -0.6873511,1.736673 -0.5820313,2.591797 0.0673,-0.555744 0.251161,-1.113851 0.5800782,-1.640625 l 10.0000001,-16 c 0.730913,-1.169972 2.013061,-1.8808 3.392578,-1.880859 h 28 c 1.379517,5.9e-5 2.661665,0.710887 3.392578,1.880859 l 10,16 c 0.332405,0.532361 0.516624,1.09661 0.582031,1.658203 0.109863,-0.860279 -0.05821,-1.773583 -0.580078,-2.609375 l -10,-16 C 48.661665,17.710887 47.379517,17.000059 46,17 Z"
     class="ColorScheme-Text" />
</svg>
