<?xml version="1.0" encoding="UTF-8" standalone="no"?>
<!-- Created with Inkscape (http://www.inkscape.org/) -->

<svg
   version="1.1"
   id="svg1"
   width="199.80489"
   height="199.80489"
   viewBox="0 0 199.80489 199.80489"
   sodipodi:docname="xclicker.svg"
   inkscape:version="1.4.2 (ebf0e940d0, 2025-05-08)"
   xmlns:inkscape="http://www.inkscape.org/namespaces/inkscape"
   xmlns:sodipodi="http://sodipodi.sourceforge.net/DTD/sodipodi-0.dtd"
   xmlns="http://www.w3.org/2000/svg"
   xmlns:svg="http://www.w3.org/2000/svg">
  <defs
     id="defs1" />
  <style
     type="text/css"
     id="current-color-scheme">
     .ColorScheme-Text {
     color:#ffffff;
     }
  </style>
  <sodipodi:namedview
     id="namedview1"
     pagecolor="#008000"
     bordercolor="#000000"
     borderopacity="0.25"
     inkscape:showpageshadow="2"
     inkscape:pageopacity="0.0"
     inkscape:pagecheckerboard="0"
     inkscape:deskcolor="#d1d1d1"
     inkscape:zoom="1.0860596"
     inkscape:cx="82.868384"
     inkscape:cy="146.40081"
     inkscape:window-width="1143"
     inkscape:window-height="1060"
     inkscape:window-x="0"
     inkscape:window-y="0"
     inkscape:window-maximized="0"
     inkscape:current-layer="svg1" />
  <path
     style="display:inline;fill:currentColor;fill-opacity:1"
     d="M 43.224408,197.48294 C 25.173783,194.75148 10.057635,181.95523 4.0892108,164.35389 c -2.1379912,-6.3051 -2.1379912,-6.3051 -2.1379912,-64.451447 0,-58.146344 0,-58.146344 2.1379912,-64.451445 C 9.1278674,20.591611 20.597626,9.1379188 35.512197,4.0720271 41.756099,1.9512196 41.756099,1.9512196 99.902443,1.9512196 c 58.146347,0 58.146347,0 64.390247,2.1208075 14.91457,5.0658917 26.38433,16.5195839 31.42299,31.3789709 2.13799,6.305101 2.13799,6.305101 2.13799,64.451445 0,58.146347 0,58.146347 -2.12081,64.390247 -5.06786,14.92035 -16.53854,26.40365 -31.37897,31.41346 -6.3051,2.12847 -6.3051,2.12847 -61.71974,2.2549 -30.47805,0.0695 -57.212434,-0.14561 -59.409742,-0.47811 z m 79.154722,-32.9918 c 4.21529,-2.79164 4.13696,-2.62273 15.61574,-33.67378 8.1819,-22.13272 9.84156,-27.34614 9.84156,-30.914917 0,-3.568774 -1.65966,-8.782201 -9.84156,-30.914918 -11.47874,-31.050954 -11.40045,-30.882124 -15.61566,-33.67378 -2.83606,-1.878267 -4.13505,-2.176425 -10.51483,-2.413474 -7.27901,-0.270462 -7.27901,-0.270462 -7.27901,17.756098 0,18.026561 0,18.026561 -4.682927,18.026561 -4.682927,0 -4.682927,0 -4.682927,-18.026561 0,-18.02656 0,-18.02656 -7.279015,-17.756098 -8.248334,0.306478 -12.60428,2.339695 -15.019778,7.010753 -2.474968,4.78606 -20.834308,55.748433 -21.20148,58.851664 -0.308008,2.603202 1.088382,7.161942 8.008889,26.146342 14.350415,39.36619 13.504263,37.58966 19.283967,40.48728 3.161397,1.58494 4.257713,1.65828 21.730251,1.4535 18.40089,-0.21566 18.40089,-0.21566 21.63678,-2.35867 z"
     id="path4"
     class="ColorScheme-Text"
     inkscape:label="main" />
</svg>
