<?xml version="1.0" encoding="UTF-8" standalone="no"?>
<svg
   shape-rendering="geometricPrecision"
   text-rendering="geometricPrecision"
   image-rendering="optimizeQuality"
   fill-rule="evenodd"
   clip-rule="evenodd"
   viewBox="0 0 512 512"
   version="1.1"
   id="svg2"
   sodipodi:docname="youtube-music-icon.svg"
   inkscape:version="1.4.2 (ebf0e940d0, 2025-05-08)"
   xmlns:inkscape="http://www.inkscape.org/namespaces/inkscape"
   xmlns:sodipodi="http://sodipodi.sourceforge.net/DTD/sodipodi-0.dtd"
   xmlns="http://www.w3.org/2000/svg"
   xmlns:svg="http://www.w3.org/2000/svg">
  <defs
     id="defs2" />
  <sodipodi:namedview
     id="namedview2"
     pagecolor="#008000"
     bordercolor="#000000"
     borderopacity="0.25"
     inkscape:showpageshadow="2"
     inkscape:pageopacity="0.0"
     inkscape:pagecheckerboard="0"
     inkscape:deskcolor="#d1d1d1"
     inkscape:zoom="0.84765625"
     inkscape:cx="125.64055"
     inkscape:cy="268.97696"
     inkscape:window-width="1920"
     inkscape:window-height="1080"
     inkscape:window-x="0"
     inkscape:window-y="0"
     inkscape:window-maximized="1"
     inkscape:current-layer="g2" />
  <style
     id="current-color-scheme"
     type="text/css">
        .ColorScheme-Text { color: #ffffff; }
    </style>
  <g
     fill-rule="nonzero"
     id="g2">
    <path
       id="path1"
       style="display:inline;fill:currentColor"
       class="ColorScheme-Text"
       d="M 245.97266 0.19726562 A 256.064 256.064 0 0 0 158.05078 19.480469 A 255.926 255.926 0 0 0 43.150391 113.76953 A 256 256 0 0 0 0 256 C 0 289.61 6.6107031 322.90094 19.470703 353.96094 A 255.843 255.843 0 0 0 74.939453 437.00977 A 255.991 255.991 0 0 0 157.98047 492.50977 A 255.902 255.902 0 0 0 255.93945 511.99023 A 256.003 256.003 0 0 0 492.5 354 A 255.946 255.946 0 0 0 507.08008 206.08984 A 255.993 255.993 0 0 0 437.03906 75 A 256.07 256.07 0 0 0 305.9707 4.9199219 A 256.064 256.064 0 0 0 245.97266 0.19726562 z M 255.93945 100.59961 A 155.44 155.44 0 0 1 315.41992 112.41016 A 155.536 155.536 0 0 1 365.85938 146.08984 A 155.455 155.455 0 0 1 399.56055 196.50977 C 407.37055 215.36977 411.39062 235.58 411.39062 256 A 155.408 155.408 0 0 1 385.2207 342.38086 A 155.371 155.371 0 0 1 315.4707 399.66016 A 155.43 155.43 0 0 1 225.65039 408.5293 A 155.467 155.467 0 0 1 146.0293 366 A 155.524 155.524 0 0 1 103.4707 286.40039 A 155.413 155.413 0 0 1 112.31055 196.58008 A 155.438 155.438 0 0 1 169.56055 126.80078 C 195.13055 109.72078 225.18945 100.59961 255.93945 100.59961 z M 255.93945 121.2207 A 134.945 134.945 0 0 0 160.75977 160.78906 C 135.51977 186.04906 121.32953 220.29 121.26953 256 A 134.88 134.88 0 0 0 143.99023 330.93945 A 134.778 134.778 0 0 0 204.50977 380.61914 A 134.83 134.83 0 0 0 282.43945 388.30078 A 134.822 134.822 0 0 0 351.49023 351.34961 A 134.58 134.58 0 0 0 388.36914 282.26953 A 134.797 134.797 0 0 0 380.64062 204.34961 A 134.84 134.84 0 0 0 330.90039 143.85938 C 308.70039 129.06937 282.61945 121.1907 255.93945 121.2207 z M 206.51953 180.41016 L 337.44922 256 L 206.51953 331.65039 L 206.51953 180.41016 z " />
  </g>
</svg>
